<?xml version="1.0" standalone="no"?>
<!DOCTYPE svg PUBLIC "-//W3C//DTD SVG 20010904//EN"
 "http://www.w3.org/TR/2001/REC-SVG-20010904/DTD/svg10.dtd">
<svg version="1.0" xmlns="http://www.w3.org/2000/svg"
 width="480.000000pt" height="480.000000pt" viewBox="0 0 480.000000 480.000000"
 preserveAspectRatio="xMidYMid meet">
<metadata>
Created by potrace 1.11, written by Peter Selinger 2001-2013
</metadata>
<g transform="translate(0.000000,480.000000) scale(0.100000,-0.100000)"
fill="#000000" stroke="none">
<path d="M885 4151 c-107 -26 -193 -107 -229 -217 -15 -46 -16 -176 -14 -1555
l3 -1504 25 -50 c42 -85 111 -142 209 -174 25 -8 462 -10 1540 -9 l1506 3 50
25 c64 31 124 91 155 155 l25 50 0 1525 0 1525 -25 50 c-44 87 -109 142 -209
174 -38 12 -2985 14 -3036 2z m2505 -1726 c30 -4 73 -14 95 -22 22 -8 49 -17
60 -20 106 -32 221 -177 239 -300 6 -38 4 -43 -14 -43 -11 -1 -58 -1 -105 -1
-188 0 -172 -3 -185 35 -24 73 -102 116 -205 112 -88 -3 -135 -25 -162 -74
-36 -67 -12 -130 60 -162 23 -10 111 -33 196 -50 223 -45 316 -86 375 -163
111 -145 77 -403 -68 -522 -42 -34 -134 -81 -178 -91 -303 -67 -555 -8 -683
160 -29 38 -65 136 -65 178 l0 28 155 0 c147 0 155 -1 155 -20 0 -27 52 -84
96 -105 50 -23 157 -29 219 -10 80 23 115 63 115 131 0 67 -76 114 -230 140
-152 27 -312 74 -318 94 -2 5 -9 10 -15 10 -22 1 -89 71 -112 118 -53 107 -53
247 1 353 87 173 308 259 574 224z m-992 -512 c-3 -452 -5 -492 -23 -543 -44
-126 -140 -216 -265 -250 -74 -20 -81 -21 -180 -21 -196 -1 -344 79 -415 224
-29 60 -34 80 -42 157 l-5 55 149 -2 c81 0 151 -2 154 -2 4 -1 9 -19 13 -40
12 -78 85 -129 168 -118 50 7 83 29 105 70 16 29 18 76 19 487 1 250 3 458 3
463 1 4 73 7 162 7 l160 0 -3 -487z"/>
</g>
</svg>
